<?xml version='1.0' encoding='utf-8'?>
<svg xmlns="http://www.w3.org/2000/svg" width="3e3mm" height="2436.4mm" version="1.1" viewBox="0 0 3e3 2436.4"> <g transform="translate(2.9541 -84.162)"> <g transform="matrix(13.791 0 0 13.791 57.347 256.19)"> <path d="m10.969-12.469c-4.0361-0.02437-6.7515 0.04341-6.7515 0.04341-4.759 0-8.5902 5.4192-8.5902 10.178v0.68264c0 4.759 3.8311 10.178 8.5902 10.178 0 0 10.882-6.4103 23.007-1.5875 3.3921 1.3492 7.2736 4.7157 10.645 8.1762l44.214 124.29c1.4959 4.2053 5.9765 6.4565 10.205 5.2183-0.69276 1.6932-1.0504 3.5046-1.0532 5.334 4e-5 7.8103 6.3315 14.142 14.142 14.142 7.8103-4e-5 14.142-6.3315 14.142-14.142-5e-3 -1.908-0.39688-3.7952-1.1508-5.548l39.858-0.46199c-0.70491 1.7069-1.0687 3.5354-1.0707 5.3821 4e-5 7.8103 6.3315 14.142 14.142 14.142 7.8103-4e-5 14.142-6.3315 14.142-14.142-5e-3 -4.0438-1.7411-7.8919-4.7692-10.572 0.24039-0.7386 0.37004-1.5278 0.36483-2.3492-0.026-4.0963-3.3446-9.49-7.4409-9.464l-72.978 0.6997-8.5147-21.819 79.686-0.76894c1.5541-0.01 2.997-0.46295 4.2137-1.2366 1.5162-0.49363 2.8121-1.6262 3.4639-3.2251l33.278-81.634c0.71816-1.7617 0.48011-3.6648-0.46819-5.1485-0.28978-4.245-5.4644-7.5979-11.817-7.5639l-148.19 0.79427c-0.99859-1.2751-2.3362-2.215-3.8318-2.7332-6.3336-7.2849-15.827-14.322-21.212-15.238-7.6012-1.2936-9.5291-1.5903-16.256-1.6309zm179.7 36.822-24.69 62.826-78.236 0.77308s-16.394-41.842-23.289-62.852c54.171-0.24898 73.891-0.49745 126.22-0.74673zm-45.987 4.1341c-0.82228 0.02032-1.5963 0.54852-1.8784 1.3519l-3.7538 10.689h-14.697l2.727-7.7654c0.42848-1.2202-0.23024-2.4792-1.4769-2.8231l-1.1927-0.32918c-1.2467-0.34386-2.5956 0.36163-3.0241 1.5818l-3.2784 9.3359h-21.987c-1.4658 0-2.6458 1.18-2.6458 2.6458s1.18 2.6458 2.6458 2.6458h20.129l-3.1853 9.0713h-24.125c-1.4658 0-2.6458 1.18-2.6458 2.6458s1.18 2.6458 2.6458 2.6458h22.267l-3.2577 9.277c-0.42848 1.2202 0.23024 2.4797 1.4769 2.8236l1.1932 0.32866c1.2467 0.34387 2.5951-0.36163 3.0236-1.5818l3.8091-10.847h14.697l-3.9357 11.207c-0.3472 0.98872 0.18664 2.0086 1.1968 2.2872l2.6991 0.74466c1.0102 0.27864 2.085-0.29929 2.45-1.2816l4.5501-12.957h14.777l-5.116 14.569c-0.42848 1.2202 0.23024 2.4797 1.4769 2.8236l0.63562 0.17518c1.2467 0.34387 2.5951-0.36163 3.0236-1.5818l5.6136-15.986h5.7712c1.4658 0 2.6458-1.18 2.6458-2.6458s-1.18-2.6458-2.6458-2.6458h-3.9135l3.1853-9.0713h10.026c1.4658 0 2.6458-1.18 2.6458-2.6458s-1.18-2.6458-2.6458-2.6458h-8.168l2.9926-8.5214c0.42848-1.2202-0.23023-2.4792-1.4769-2.8231l-0.6351-0.17518c-1.2467-0.34387-2.5951 0.36163-3.0236 1.5818l-3.4897 9.9379h-14.778l3.1393-8.939c0.3472-0.98872-0.18664-2.0091-1.1968-2.2877l-2.6991-0.74466c-0.18941-0.05224-0.38179-0.07445-0.57154-0.06976zm-22.187 17.333h14.697l-3.1853 9.0713h-14.697zm21.657 0h14.778l-3.1858 9.0713h-14.777z" fill-rule="evenodd" stroke-width=".27839"/> </g> </g> </svg>